<?xml version="1.0" encoding="UTF-8" standalone="no"?>
<!-- Created with Inkscape (http://www.inkscape.org/) -->

<svg
   version="1.1"
   id="svg1"
   width="259"
   height="194"
   viewBox="0 0 259 194"
   sodipodi:docname="images.png"
   inkscape:version="1.3 (0e150ed6c4, 2023-07-21)"
   inkscape:dataloss="true"
   inkscape:export-filename="images.svg"
   inkscape:export-xdpi="96"
   inkscape:export-ydpi="96"
   xmlns:inkscape="http://www.inkscape.org/namespaces/inkscape"
   xmlns:sodipodi="http://sodipodi.sourceforge.net/DTD/sodipodi-0.dtd"
   xmlns="http://www.w3.org/2000/svg"
   xmlns:svg="http://www.w3.org/2000/svg">
  <defs
     id="defs1">
    <inkscape:path-effect
       effect="bspline"
       id="path-effect1"
       is_visible="true"
       lpeversion="1.3"
       weight="33.333333"
       steps="2"
       helper_size="0"
       apply_no_weight="true"
       apply_with_weight="true"
       only_selected="false"
       uniform="false" />
  </defs>
  <sodipodi:namedview
     id="namedview1"
     pagecolor="#ffffff"
     bordercolor="#000000"
     borderopacity="0.25"
     inkscape:showpageshadow="2"
     inkscape:pageopacity="0.0"
     inkscape:pagecheckerboard="0"
     inkscape:deskcolor="#d1d1d1"
     inkscape:zoom="4.056701"
     inkscape:cx="75.184244"
     inkscape:cy="96.506989"
     inkscape:window-width="1920"
     inkscape:window-height="1001"
     inkscape:window-x="-9"
     inkscape:window-y="-9"
     inkscape:window-maximized="1"
     inkscape:current-layer="g1" />
  <g
     inkscape:groupmode="layer"
     inkscape:label="Image"
     id="g1">
    <path
       style="fill:#000000"
       d="m 69.761118,77.402795 c 0,0 -4.437103,13.804321 -4.437103,13.804321 0,0 -0.986023,13.064804 -0.986023,13.064804 0,0 3.204575,23.66455 3.204575,23.66455 0,0 8.134688,19.96696 8.134688,19.96696 0,0 14.790343,21.6925 14.790343,21.6925 0,0 9.120712,5.66964 9.120712,5.66964 0,0 3.32783,1.78716 3.32783,1.78716 0,0 6.65565,0 6.65565,0 0,0 6.22427,-2.0953 6.22427,-2.0953 0,0 8.19632,-3.45108 8.19632,-3.45108 0,0 4.80686,-0.73951 4.80686,-0.73951 0,0 4.49873,-0.43139 4.49873,-0.43139 0,0 4.4371,0.86277 4.4371,0.86277 0,0 3.32783,0.43139 3.32783,0.43139 0,0 8.38119,3.38945 8.38119,3.38945 0,0 6.59403,1.91042 6.59403,1.91042 0,0 5.54638,0.18488 5.54638,0.18488 0,0 3.94409,-1.78717 3.94409,-1.78717 0,0 3.45108,-1.78716 3.45108,-1.78716 0,0 3.2662,-2.89645 3.2662,-2.89645 0,0 2.71156,-3.14294 2.71156,-3.14294 0,0 2.52669,-3.20458 2.52669,-3.20458 0,0 4.3169,-5.67772 4.3169,-5.67772 0,0 4.57553,-6.62363 4.57553,-6.62363 0,0 5.77466,-10.99344 5.77466,-10.99344 0,0 2.71156,-6.2859 2.71156,-6.2859 0,0 -7.76493,-3.82083 -7.76493,-3.82083 0,0 -6.90216,-7.51843 -6.90216,-7.51843 0,0 -3.94409,-8.01143 -3.94409,-8.01143 0,0 -3.08132,-11.83228 -3.08132,-11.83228 0,0 -0.24651,-7.39517 -0.24651,-7.39517 0,0 4.1906,-11.092757 4.1906,-11.092757 0,0 5.91614,-7.888183 5.91614,-7.888183 0,0 7.14866,-4.930115 7.14866,-4.930115 0,0 0.86277,-0.86277 0.86277,-0.86277 0,0 -4.56035,-4.930114 -4.56035,-4.930114 0,0 -7.51843,-6.285896 -7.51843,-6.285896 0,0 -12.69504,-4.437103 -12.69504,-4.437103 0,0 -18.85769,0.86277 -18.85769,0.86277 0,0 -12.44854,5.792885 -12.44854,5.792885 0,0 -4.4371,0.739517 -4.4371,0.739517 0,0 -4.31385,-0.986023 -4.31385,-0.986023 0,0 -8.25794,-2.58831 -8.25794,-2.58831 0,0 -6.65566,-2.711563 -6.65566,-2.711563 0,0 -5.54638,-0.86277 -5.54638,-0.86277 0,0 -7.518421,0 -7.518421,0 0,0 -8.750953,3.204574 -8.750953,3.204574 0,0 -5.299873,3.697586 -5.299873,3.697586 0,0 -9.613723,7.518425 -9.613723,7.518425 0,0 -3.820839,4.683608 -3.820839,4.683608 z M 137.85832,28.841169 c 0,0 -2.64993,3.512707 -2.64993,3.512707 0,0 -1.8488,4.31385 -1.8488,4.31385 0,0 -3.45108,6.285895 -3.45108,6.285895 0,0 -0.2465,5.792885 -0.2465,5.792885 0,0 -0.49301,4.375476 -0.49301,4.375476 0,0 -0.0616,0.86277 -0.0616,0.86277 0,0 1.41741,0.06163 1.41741,0.06163 0,0 6.77891,-1.232529 6.77891,-1.232529 0,0 4.99174,-1.787166 4.99174,-1.787166 0,0 4.37547,-2.834816 4.37547,-2.834816 0,0 6.65566,-6.594028 6.65566,-6.594028 0,0 4.31385,-6.532402 4.31385,-6.532402 0,0 2.46505,-5.299873 2.46505,-5.299873 0,0 -0.0616,-3.204574 -0.0616,-3.204574 0,0 0.43138,-5.299873 0.43138,-5.299873 0,0 0.30813,-2.218551 0.30813,-2.218551 0,0 -0.18487,-1.91042 -0.18487,-1.91042 0,0 -5.54638,1.355782 -5.54638,1.355782 0,0 -5.29988,1.972046 -5.29988,1.972046 0,0 -5.54637,2.834815 -5.54637,2.834815 0,0 -3.20458,3.019695 -3.20458,3.019695 z"
       id="path1"
       inkscape:path-effect="#path-effect1"
       inkscape:original-d="m 69.761118,77.402795 c 0,0 -4.437103,13.804321 -4.437103,13.804321 0,0 -0.986023,13.064804 -0.986023,13.064804 0,0 3.204575,23.66455 3.204575,23.66455 0,0 8.134688,19.96696 8.134688,19.96696 0,0 14.790343,21.6925 14.790343,21.6925 0,0 9.120712,5.66964 9.120712,5.66964 0,0 3.32783,1.78716 3.32783,1.78716 0,0 6.65565,0 6.65565,0 0,0 6.22427,-2.0953 6.22427,-2.0953 0,0 8.19632,-3.45108 8.19632,-3.45108 0,0 4.80686,-0.73951 4.80686,-0.73951 0,0 4.49873,-0.43139 4.49873,-0.43139 0,0 4.4371,0.86277 4.4371,0.86277 0,0 3.32783,0.43139 3.32783,0.43139 0,0 8.38119,3.38945 8.38119,3.38945 0,0 6.59403,1.91042 6.59403,1.91042 0,0 5.54638,0.18488 5.54638,0.18488 0,0 3.94409,-1.78717 3.94409,-1.78717 0,0 3.45108,-1.78716 3.45108,-1.78716 0,0 3.2662,-2.89645 3.2662,-2.89645 0,0 2.71156,-3.14294 2.71156,-3.14294 0,0 2.52669,-3.20458 2.52669,-3.20458 0,0 4.3169,-5.67772 4.3169,-5.67772 0,0 4.57553,-6.62363 4.57553,-6.62363 0,0 5.77466,-10.99344 5.77466,-10.99344 0,0 2.71156,-6.2859 2.71156,-6.2859 0,0 -7.76493,-3.82083 -7.76493,-3.82083 0,0 -6.90216,-7.51843 -6.90216,-7.51843 0,0 -3.94409,-8.01143 -3.94409,-8.01143 0,0 -3.08132,-11.83228 -3.08132,-11.83228 0,0 -0.24651,-7.39517 -0.24651,-7.39517 0,0 4.1906,-11.092757 4.1906,-11.092757 0,0 5.91614,-7.888183 5.91614,-7.888183 0,0 7.14866,-4.930115 7.14866,-4.930115 0,0 0.86277,-0.86277 0.86277,-0.86277 0,0 -4.56035,-4.930114 -4.56035,-4.930114 0,0 -7.51843,-6.285896 -7.51843,-6.285896 0,0 -12.69504,-4.437103 -12.69504,-4.437103 0,0 -18.85769,0.86277 -18.85769,0.86277 0,0 -12.44854,5.792885 -12.44854,5.792885 0,0 -4.4371,0.739517 -4.4371,0.739517 0,0 -4.31385,-0.986023 -4.31385,-0.986023 0,0 -8.25794,-2.58831 -8.25794,-2.58831 0,0 -6.65566,-2.711563 -6.65566,-2.711563 0,0 -5.54638,-0.86277 -5.54638,-0.86277 0,0 -7.518421,0 -7.518421,0 0,0 -8.750953,3.204574 -8.750953,3.204574 0,0 -5.299873,3.697586 -5.299873,3.697586 0,0 -9.613723,7.518425 -9.613723,7.518425 0,0 -3.820839,4.683608 -3.820839,4.683608 z M 137.85832,28.841169 c 0,0 -2.64993,3.512707 -2.64993,3.512707 0,0 -1.8488,4.31385 -1.8488,4.31385 0,0 -3.45108,6.285895 -3.45108,6.285895 0,0 -0.2465,5.792885 -0.2465,5.792885 0,0 -0.49301,4.375476 -0.49301,4.375476 0,0 -0.0616,0.86277 -0.0616,0.86277 0,0 1.41741,0.06163 1.41741,0.06163 0,0 6.77891,-1.232529 6.77891,-1.232529 0,0 4.99174,-1.787166 4.99174,-1.787166 0,0 4.37547,-2.834816 4.37547,-2.834816 0,0 6.65566,-6.594028 6.65566,-6.594028 0,0 4.31385,-6.532402 4.31385,-6.532402 0,0 2.46505,-5.299873 2.46505,-5.299873 0,0 -0.0616,-3.204574 -0.0616,-3.204574 0,0 0.43138,-5.299873 0.43138,-5.299873 0,0 0.30813,-2.218551 0.30813,-2.218551 0,0 -0.18487,-1.91042 -0.18487,-1.91042 0,0 -5.54638,1.355782 -5.54638,1.355782 0,0 -5.29988,1.972046 -5.29988,1.972046 0,0 -5.54637,2.834815 -5.54637,2.834815 0,0 -3.20458,3.019695 -3.20458,3.019695 z" />
  </g>
</svg>
